<svg width="16" height="16" viewBox="0 0 16 16" fill="none" xmlns="http://www.w3.org/2000/svg">
<path d="M14.3625 4.7375C14.3719 4.87813 14.3719 5.01875 14.3719 5.1625C14.3719 9.49688 11.0687 14.5 5.03125 14.5V14.4969C3.24688 14.5 1.5 13.9906 0 13.025C0.259375 13.0563 0.51875 13.0719 0.78125 13.0719C2.25937 13.0719 3.69375 12.5781 4.85938 11.6625C3.45625 11.6344 2.22188 10.7188 1.79375 9.38438C2.28438 9.47813 2.79375 9.45938 3.275 9.32813C1.74375 9.01875 0.640625 7.67188 0.640625 6.10938V6.06875C1.09688 6.32188 1.60937 6.4625 2.13125 6.47813C0.6875 5.51875 0.24375 3.6 1.11563 2.09688C2.78125 4.14688 5.24062 5.39375 7.88125 5.525C7.61562 4.38438 7.97813 3.19063 8.83125 2.3875C10.1531 1.14375 12.2313 1.20938 13.475 2.53125C14.2094 2.3875 14.9156 2.11563 15.5594 1.73438C15.3156 2.49375 14.8 3.14063 14.1156 3.55C14.7656 3.47188 15.4031 3.3 16 3.03438C15.5594 3.69688 15.0031 4.27188 14.3625 4.7375Z" fill="white"/>
</svg>
